<svg width="31" height="31" viewBox="0 0 31 31" fill="none" xmlns="http://www.w3.org/2000/svg">
<path fill-rule="evenodd" clip-rule="evenodd" d="M0 0H31V31H0V0ZM14.57 25.1875H2.945V27.125H14.57V25.1875ZM11.2375 4.03V6.355H9.455V14.4925H11.2375V16.895H4.8825V14.4925H6.665V6.355H4.8825V4.03H11.2375ZM14.88 16.5075C15.6724 16.9032 16.5527 17.0899 17.4375 17.05C18.53 16.9946 19.5817 16.6171 20.46 15.965C20.9661 15.5026 21.3405 14.9143 21.545 14.26C21.7791 13.6151 21.8844 12.9305 21.855 12.245V3.875H18.9875V12.1675C19.048 12.7497 18.8815 13.3327 18.5225 13.795C18.225 14.1707 17.7603 14.374 17.2825 14.3375C16.848 14.355 16.4176 14.2474 16.0425 14.0275C15.6438 13.7635 15.2794 13.4511 14.9575 13.0975L13.175 15.1125C13.6539 15.6771 14.2317 16.1498 14.88 16.5075Z" fill="#787A86"/>
</svg>
