<svg width="32" height="32" viewBox="0 0 32 32" fill="none" xmlns="http://www.w3.org/2000/svg">
<path d="M29.101 24.4763C27.4083 24.4335 26.0964 24.6053 24.9961 25.0778C24.6787 25.2065 24.1708 25.2067 24.1285 25.6148C24.2978 25.7866 24.3189 26.0659 24.4671 26.3021C24.7212 26.7316 25.1653 27.3115 25.5674 27.6124C26.0116 27.956 26.4562 28.2995 26.9215 28.6003C27.7468 29.1158 28.6779 29.4164 29.4819 29.932C29.9476 30.2325 30.4128 30.6194 30.8784 30.9415C31.1112 31.1131 31.2592 31.3926 31.5556 31.4998V31.4355C31.4073 31.2421 31.365 30.9629 31.217 30.7481C31.0056 30.5333 30.7937 30.34 30.5821 30.1252C29.9685 29.2877 29.2068 28.5573 28.3816 27.956C27.7046 27.4834 26.2233 26.8391 25.9483 26.0443C25.9483 26.0443 25.927 26.0229 25.9059 26.0015C26.3714 25.9585 26.9215 25.7866 27.366 25.6578C28.0854 25.4643 28.7413 25.5074 29.4819 25.3141C29.8204 25.2281 30.159 25.1207 30.4975 25.0133V24.8201C30.1168 24.4335 29.8417 23.918 29.4396 23.5529C28.3605 22.6076 27.1754 21.6842 25.9483 20.911C25.2923 20.4813 24.4458 20.2021 23.7476 19.837C23.4939 19.708 23.0705 19.6437 22.9225 19.4289C22.5415 18.9564 22.3298 18.3336 22.0548 17.7751C21.4414 16.5937 20.8487 15.2836 20.3197 14.0379C19.939 13.2002 19.7062 12.3624 19.2407 11.5893C17.0612 7.93795 14.6914 5.72566 11.052 3.55621C10.269 3.10523 9.33801 2.9119 8.34352 2.67574C7.81471 2.65413 7.28555 2.61129 6.75662 2.58969C6.41803 2.43932 6.07944 2.03131 5.78317 1.83798C4.57731 1.06467 1.46663 -0.610477 0.577952 1.60181C0.00658105 2.99783 1.42443 4.37236 1.91091 5.08136C2.2709 5.57529 2.73622 6.13368 2.99017 6.69218C3.1383 7.05711 3.1805 7.44401 3.32863 7.83055C3.66735 8.77534 3.98453 9.82803 4.42905 10.7087C4.66183 11.1597 4.91566 11.6322 5.21192 12.0403C5.38122 12.2765 5.67736 12.384 5.74097 12.7705C5.44483 13.2002 5.42354 13.8446 5.25412 14.3815C4.49242 16.8086 4.78881 19.8156 5.86782 21.5982C6.20629 22.135 7.01044 23.3167 8.08958 22.8655C9.04186 22.4789 8.83024 21.2547 9.1051 20.1807C9.16883 19.9227 9.12651 19.7511 9.25336 19.5793V19.6224C9.54963 20.2236 9.84577 20.8037 10.1209 21.405C10.7769 22.4573 11.9194 23.5529 12.8716 24.2832C13.3796 24.6696 13.7815 25.3355 14.4164 25.5718V25.5073H14.3739C14.247 25.3139 14.0565 25.2281 13.8873 25.0776C13.5065 24.6912 13.0832 24.2187 12.787 23.789C11.8985 22.5861 11.1154 21.2545 10.4171 19.8799C10.0787 19.2142 9.78228 18.4839 9.5073 17.8181C9.38021 17.5601 9.38021 17.1736 9.16871 17.0449C8.85128 17.5173 8.38584 17.9255 8.15306 18.5053C7.75123 19.4289 7.70878 20.5673 7.56065 21.7485C7.476 21.7702 7.5182 21.7485 7.47588 21.7917C6.79894 21.6196 6.56616 20.911 6.3121 20.3095C5.67724 18.7846 5.57143 16.336 6.12176 14.5748C6.2699 14.1237 6.90475 12.7062 6.65081 12.2766C6.52384 11.8685 6.10048 11.6322 5.86782 11.3101C5.59284 10.902 5.29645 10.3867 5.10611 9.93543C4.59823 8.73262 4.34428 7.40093 3.7942 6.19812C3.54025 5.63961 3.0961 5.05987 2.73622 4.54433C2.33427 3.96447 1.88987 3.55621 1.57244 2.86894C1.46675 2.63278 1.3185 2.24612 1.48779 1.98835C1.53012 1.8165 1.61464 1.75218 1.78406 1.70922C2.05916 1.4728 2.84215 1.77354 3.11702 1.90242C3.90001 2.22439 4.5559 2.52537 5.21192 2.97635C5.50807 3.19116 5.8255 3.59929 6.20629 3.7067H6.65069C7.32787 3.85694 8.08945 3.74966 8.72431 3.94287C9.84589 4.30792 10.8614 4.84494 11.7714 5.42493C14.5433 7.2076 16.8283 9.7421 18.3732 12.7705C18.6271 13.2644 18.7328 13.7157 18.9656 14.231C19.4101 15.2836 19.9602 16.3575 20.4043 17.3885C20.8487 18.3978 21.2719 19.4289 21.9067 20.2667C22.2241 20.7175 23.4936 20.9539 24.065 21.1902C24.4882 21.3834 25.1442 21.5554 25.525 21.7916C26.2444 22.2424 26.9638 22.7582 27.641 23.252C27.9796 23.5098 29.0374 24.0468 29.101 24.4763V24.4763Z" fill="#787A86"/>
<path d="M7.51809 5.81134C7.15846 5.81134 6.90464 5.85455 6.6507 5.91887V5.96183H6.69302C6.86244 6.30553 7.15846 6.54182 7.36996 6.84243C7.53937 7.186 7.68738 7.52982 7.8568 7.87351C7.87784 7.85191 7.899 7.83055 7.899 7.83055C8.19539 7.61562 8.3434 7.27204 8.3434 6.7565C8.21643 6.60626 8.19527 6.45589 8.08946 6.30553C7.96261 6.09059 7.68738 5.98331 7.51809 5.81134V5.81134Z" fill="#787A86"/>
</svg>
