<svg width="28" height="32" viewBox="0 0 28 32" fill="none" xmlns="http://www.w3.org/2000/svg">
<path fill-rule="evenodd" clip-rule="evenodd" d="M27.4322 0L24.9331 27.9967L13.6993 31.1111L2.4965 28.0011L0 0H27.4322ZM13.9881 6.16818H13.9881H14H22.5909L21.9709 13.1191L21.8871 14.0413L21.0801 23.0825L21.0284 23.6627L14 25.6107V25.6112L13.9841 25.6156L6.9494 23.6627L6.46826 18.2704H8.05717H9.91568L10.1602 21.0094L13.9849 22.0422L13.9881 22.0413V22.0411L17.8183 21.0073L18.217 16.5533H14V16.5534H6.31482L6.00702 13.1192H13.9881V13.1191H18.5148L18.8273 9.60244H14H13.9881H5.70073L5.38855 6.16818H13.9881Z" fill="#787A86"/>
</svg>
