<svg width="34" height="18" viewBox="0 0 34 18" fill="none" xmlns="http://www.w3.org/2000/svg">
<path d="M17 17.3832C21.3573 17.3832 25.3268 16.4892 28.2255 15.0202C31.0961 13.5654 33.0556 11.4647 33.0556 9.00002C33.0556 6.53533 31.0961 4.43462 28.2255 2.97985C25.3268 1.51088 21.3573 0.616882 17 0.616882C12.6428 0.616882 8.67328 1.51088 5.77461 2.97985C2.90398 4.43461 0.944458 6.53533 0.944458 9.00002C0.944458 11.4647 2.90398 13.5654 5.77461 15.0202C8.67328 16.4892 12.6428 17.3832 17 17.3832Z" stroke="#787A86"/>
<path fill-rule="evenodd" clip-rule="evenodd" d="M10.2169 6.58155C10.923 6.58155 11.3938 6.7119 11.6291 6.97261C11.8642 7.23331 11.9203 7.68099 11.7973 8.31508C11.6686 8.9755 11.4211 9.44688 11.0543 9.72941C10.6875 10.0119 10.1292 10.153 9.3798 10.153H8.24894L8.94303 6.58155H10.2169ZM5.68756 13.7685H7.54638L7.98747 11.4998H9.57975C10.2823 11.4998 10.8603 11.4259 11.314 11.2782C11.7677 11.1306 12.1803 10.8832 12.5514 10.5358C12.8629 10.2497 13.1149 9.93369 13.3079 9.58833C13.5007 9.24298 13.6377 8.86208 13.7187 8.44543C13.9155 7.43383 13.7671 6.64588 13.2739 6.08157C12.7809 5.51708 11.9963 5.23493 10.9209 5.23493H7.34624L5.68756 13.7685V13.7685ZM15.084 2.96606H16.9283L16.4874 5.23493H18.1306C19.1641 5.23493 19.8775 5.41513 20.2699 5.77572C20.6623 6.13631 20.7799 6.72074 20.623 7.52863L19.8514 11.4998H17.9777L18.7113 7.72388C18.7946 7.29426 18.7642 7.00139 18.6191 6.84507C18.4741 6.68895 18.1654 6.6107 17.6937 6.6107H16.2197L15.2696 11.4998H13.4253L15.084 2.96606ZM24.7266 6.58155C25.4327 6.58155 25.9034 6.7119 26.1389 6.97261C26.374 7.23331 26.4299 7.68099 26.3068 8.31508C26.1786 8.9755 25.931 9.44688 25.564 9.72941C25.1974 10.0119 24.639 10.153 23.8899 10.153H22.7591L23.453 6.58155H24.7266V6.58155ZM20.1969 13.7685H22.0559L22.4969 11.4998H24.0891C24.7919 11.4998 25.3699 11.4259 25.8236 11.2782C26.2773 11.1306 26.6898 10.8832 27.0609 10.5358C27.3724 10.2497 27.6245 9.93369 27.8173 9.58833C28.0101 9.24298 28.1472 8.86208 28.2285 8.44543C28.4251 7.43383 28.2766 6.64588 27.7836 6.08157C27.2902 5.51708 26.5059 5.23493 25.4305 5.23493H21.8558L20.1969 13.7685V13.7685Z" fill="#787A86"/>
</svg>
