<svg width="32" height="32" viewBox="0 0 32 32" fill="none" xmlns="http://www.w3.org/2000/svg">
<path fill-rule="evenodd" clip-rule="evenodd" d="M31.5556 0.703705H0.444458V31.2963H31.5556V0.703705ZM29.0815 3.13657H2.9187V28.8636H29.0815V3.13657Z" fill="#787A86"/>
<path d="M7.96275 9.32607C7.96275 9.32607 9.9298 9.27432 11.549 9.27432C13.1853 9.27432 14.3519 9.65927 15.1352 10.3357C15.8838 10.975 16.3887 12.0647 16.3887 13.3052C16.3887 14.5457 16.0056 15.5607 15.3091 16.2744C14.4039 17.1954 13.349 17.7406 11.549 17.816C11.0518 17.8368 10.5915 17.8418 10.5915 17.8418V21.8742H7.96265L7.96275 9.32607V9.32607ZM10.5914 15.6077C10.877 15.6355 11.056 15.6221 11.4793 15.6171C12.8895 15.6001 13.7597 14.7426 13.7597 13.4458C13.7597 12.2808 13.0422 11.3242 11.6884 11.2747C11.1488 11.255 10.5914 11.2747 10.5914 11.2747V15.6077V15.6077Z" fill="#787A86"/>
<path d="M17.3919 19.065C17.9217 19.3901 19.172 19.877 20.0242 19.877C20.8949 19.877 21.2544 19.5702 21.2544 19.0918C21.2544 18.6128 20.9705 18.1096 19.8912 17.7458C17.9791 17.0947 17.2406 16.3152 17.2598 15.2243C17.2598 13.4622 18.7363 12.1411 21.0271 12.1411C22.1063 12.1411 22.9683 12.4939 23.5358 12.7809V14.8956C23.1189 14.6656 21.9169 14.1521 21.1219 14.1521C20.421 14.1521 20.0237 14.4393 20.0237 14.9176C20.0237 15.3581 20.3836 15.588 21.5195 15.9903C23.2799 16.603 24.0183 17.5027 24.037 18.8815C24.037 20.6242 22.6936 22.01 20.0237 21.9259C19.1073 21.8971 18.0922 21.5348 17.3917 21.1524L17.3919 19.065V19.065Z" fill="#787A86"/>
</svg>
