<svg width="32" height="32" viewBox="0 0 32 32" fill="none" xmlns="http://www.w3.org/2000/svg">
<path fill-rule="evenodd" clip-rule="evenodd" d="M31.5556 0.768555H0.444458V31.2315H31.5556V0.768555ZM14.5513 16.2767H11.7937L13.1725 10.9294L14.5513 16.2767ZM2.79822 28.8612V3.15384H29.2413V28.8612H2.79822ZM15.0558 18.6646L16.0647 22.1397H18.8897L14.7868 8.50804H11.3564V9.85326L7.75791 22.1397H10.3138L11.3228 18.6646H15.0558ZM20.1006 22.1397H22.8583V11.7703H20.1006V22.1397ZM20.0667 9.11346C20.0667 9.89351 20.7067 10.5259 21.4961 10.5259C22.2856 10.5259 22.9255 9.89351 22.9255 9.11346C22.9255 8.33335 22.2857 7.70092 21.4961 7.70092C20.7066 7.70092 20.0667 8.33335 20.0667 9.11346Z" fill="#787A86"/>
</svg>
