<svg width="32" height="32" viewBox="0 0 32 32" fill="none" xmlns="http://www.w3.org/2000/svg">
<path fill-rule="evenodd" clip-rule="evenodd" d="M0.444458 0.444458H31.5556V31.5556H0.444458V0.444458ZM24.2272 26.5255C22.7852 26.5255 21.9699 25.7734 21.3432 24.7502L18.9674 26.1304C19.8257 27.8262 21.5798 29.12 24.2948 29.12C27.0716 29.12 29.1393 27.6781 29.1393 25.046C29.1393 22.6045 27.7368 21.5185 25.2528 20.4534L24.522 20.1403C23.2677 19.5971 22.7244 19.242 22.7244 18.365C22.7244 17.6553 23.2672 17.1121 24.1235 17.1121C24.963 17.1121 25.5037 17.4662 26.0049 18.365L28.2815 16.9032C27.3185 15.2094 25.9822 14.5625 24.1235 14.5625C21.5126 14.5625 19.842 16.2316 19.842 18.4242C19.842 20.8045 21.2435 21.9304 23.3531 22.8292L24.084 23.1427C25.4173 23.726 26.2123 24.081 26.2123 25.0835C26.2123 25.92 25.4385 26.5255 24.2272 26.5255ZM12.8973 26.5072C11.8928 26.5072 11.4751 25.8183 11.0158 25.0035L8.63605 26.4442C9.32543 27.9032 10.681 29.1146 13.0217 29.1146C15.6123 29.1146 17.3872 27.7368 17.3872 24.7097V14.7294H14.4637V24.6702C14.4637 26.1314 13.8578 26.5072 12.8973 26.5072Z" fill="#787A86"/>
</svg>
